<svg xmlns="http://www.w3.org/2000/svg" xmlns:xlink="http://www.w3.org/1999/xlink" viewBox="0 0 181 53.31"><defs><clipPath id="clip-path" transform="translate(-55.8 -120.21)"><path d="M215,157.8a3.26,3.26,0,0,1-3.24,1.65c-2.15,0-3.54-1.51-3.62-3.9v-.15h9.61v-.94c0-4.27-2.29-6.86-6.07-6.86s-6.27,2.76-6.27,7.11,2.39,7,6.29,7c3.11,0,5.29-1.5,5.9-3.94Zm-3.34-7.91a3.28,3.28,0,0,1,3.35,3.52h-6.87A3.48,3.48,0,0,1,211.68,149.89ZM198,161.48h2.69v-8a3.18,3.18,0,0,1,3.46-3.2,7.36,7.36,0,0,1,1.49.16v-2.65a5.63,5.63,0,0,0-1.19-.11,3.67,3.67,0,0,0-3.66,2.31h-.2v-2.09H198Zm-7.64.26c4,0,6.41-2.66,6.41-7.07s-2.45-7.06-6.41-7.06-6.42,2.67-6.42,7.06S186.37,161.74,190.36,161.74Zm0-2.39c-2.34,0-3.65-1.71-3.65-4.69S188,150,190.36,150s3.65,1.72,3.65,4.67S192.68,159.35,190.36,159.35ZM178,144.57v3.36h-2.24v2.26H178v7.69c0,2.62,1.19,3.67,4.17,3.67a8.25,8.25,0,0,0,1.44-.14v-2.24a8.41,8.41,0,0,1-1,.06c-1.34,0-1.92-.62-1.92-2v-7h3v-2.26h-3v-3.36Zm-16.15,12.06c.2,3.22,2.89,5.29,6.89,5.29,4.27,0,6.95-2.16,6.95-5.61,0-2.71-1.52-4.21-5.22-5.07l-2-.49c-2.35-.55-3.3-1.29-3.3-2.57,0-1.62,1.47-2.69,3.69-2.69s3.55,1,3.81,2.7h2.72c-.16-3-2.84-5.17-6.5-5.17-3.94,0-6.56,2.14-6.56,5.35,0,2.65,1.49,4.22,4.75,5l2.32.56c2.39.56,3.44,1.39,3.44,2.76,0,1.6-1.65,2.76-3.9,2.76-2.41,0-4.09-1.09-4.32-2.8Zm-12.1,2.66c-2.25,0-3.66-1.77-3.66-4.61s1.41-4.62,3.67-4.62,3.64,1.74,3.64,4.61S152,159.29,149.72,159.29Zm.76-11.65a4.73,4.73,0,0,0-4.27,2.47H146v-2.25h-2.59v18h2.69v-6.47h.21a4.44,4.44,0,0,0,4.19,2.29c3.44,0,5.62-2.71,5.62-7S153.94,147.64,150.48,147.64Zm-14.7,11.65c-2.25,0-3.66-1.77-3.66-4.61s1.41-4.62,3.67-4.62,3.64,1.74,3.64,4.61S138.07,159.29,135.78,159.29Zm.76-11.65a4.73,4.73,0,0,0-4.27,2.47h-.2v-2.25h-2.59v18h2.69v-6.47h.21a4.44,4.44,0,0,0,4.19,2.29c3.44,0,5.62-2.71,5.62-7S140,147.64,136.55,147.64Zm-16-.92h.21l2.61,7.62h-5.45Zm5.19,14.76h3l-6.51-18h-3l-6.51,18h2.87l1.66-4.79H124Z" fill="none" clip-rule="evenodd"/></clipPath><clipPath id="clip-path-2" transform="translate(-55.8 -120.21)"><rect width="292.48" height="219.36" fill="none"/></clipPath><clipPath id="clip-path-3" transform="translate(-55.8 -120.21)"><path d="M215.46,136.21a1.55,1.55,0,0,1-1.54.79,1.71,1.71,0,0,1-1.73-1.86v-.07h4.58v-.45c0-2-1.09-3.27-2.89-3.27s-3,1.32-3,3.39,1.14,3.34,3,3.34a2.63,2.63,0,0,0,2.81-1.87Zm-1.59-3.77a1.56,1.56,0,0,1,1.59,1.68h-3.27A1.66,1.66,0,0,1,213.87,132.44ZM203.4,138h1.28v-3.78a1.56,1.56,0,0,1,1.7-1.64c1,0,1.45.52,1.45,1.56V138h1.28v-4.18a2.14,2.14,0,0,0-2.29-2.42,2.09,2.09,0,0,0-2,1.16h-.1v-3.57H203.4Zm-4.55-8.05v1.6h-1.07v1.08h1.07v3.66c0,1.25.57,1.75,2,1.75a3.93,3.93,0,0,0,.68-.07v-1.07a4,4,0,0,1-.48,0c-.64,0-.92-.3-.92-1v-3.33h1.45V131.5h-1.45v-1.6ZM187,138h1.28v-3.79a1.53,1.53,0,0,1,1.66-1.64c1,0,1.42.52,1.42,1.56V138h1.28v-4.2a2.31,2.31,0,0,0-4.31-1.26h-.1v-1H187Zm-4.89.12c1.89,0,3.05-1.27,3.05-3.37s-1.17-3.36-3.05-3.36-3.06,1.27-3.06,3.36S180.23,138.08,182.13,138.08Zm0-1.14c-1.11,0-1.74-.82-1.74-2.23s.62-2.23,1.74-2.23,1.74.82,1.74,2.23S183.24,136.94,182.13,136.94Zm-11.59-4.43c1.07,0,1.74.85,1.74,2.2s-.67,2.2-1.74,2.2-1.73-.83-1.73-2.2S169.46,132.52,170.54,132.52Zm-.36,5.55a2.25,2.25,0,0,0,2-1.13h.1v1h1.23v-9h-1.28v3.56h-.1a2.14,2.14,0,0,0-2-1.14c-1.64,0-2.69,1.3-2.69,3.34S168.53,138.06,170.17,138.06Zm-7.77,0a2.18,2.18,0,0,0,1.95-1h.1V138h1.23v-4.43c0-1.37-.92-2.18-2.54-2.18-1.47,0-2.52.71-2.65,1.83h1.24c.14-.46.64-.72,1.35-.72.87,0,1.33.39,1.33,1.07v.56l-1.76.1c-1.54.1-2.41.77-2.41,1.93A2,2,0,0,0,162.4,138.06Zm.33-1.08c-.7,0-1.2-.34-1.2-.92s.4-.87,1.3-.93l1.58-.1v.54A1.53,1.53,0,0,1,162.73,137Zm-7,1.09c1.89,0,3.05-1.27,3.05-3.37s-1.17-3.36-3.05-3.36-3.06,1.27-3.06,3.36S153.82,138.08,155.72,138.08Zm0-1.14c-1.11,0-1.74-.82-1.74-2.23s.62-2.23,1.74-2.23,1.74.82,1.74,2.23S156.82,136.94,155.72,136.94Zm-6.24,1h1.28v-9h-1.28Zm-7.8,0H143v-3.79a1.53,1.53,0,0,1,1.66-1.64c1,0,1.42.52,1.42,1.56V138h1.28v-4.2A2.31,2.31,0,0,0,143,132.5h-.1v-1h-1.23Zm-1.63-6.48h-1.28l-1.15,4.94h-.1l-1.33-4.94H135l-1.33,4.94h-.1l-1.16-4.94h-1.3l1.79,6.48h1.32l1.33-4.77h.1L137,138h1.33ZM127,138.08c1.89,0,3.05-1.27,3.05-3.37s-1.17-3.36-3.05-3.36-3.06,1.27-3.06,3.36S125.08,138.08,127,138.08Zm0-1.14c-1.11,0-1.74-.82-1.74-2.23s.62-2.23,1.74-2.23,1.74.82,1.74,2.23S128.08,136.94,127,136.94Zm-10.5-6.36h1.62c1.78,0,2.83,1.13,2.83,3.07s-1,3.09-2.83,3.09h-1.62Zm-1.33-1.21V138h3.1c2.56,0,4-1.58,4-4.32s-1.49-4.27-4-4.27Z" fill="none" clip-rule="evenodd"/></clipPath><clipPath id="clip-path-5" transform="translate(-55.8 -120.21)"><path d="M97.17,147.65a7.84,7.84,0,0,1,3.73-6.58,8,8,0,0,0-6.32-3.42c-2.66-.28-5.24,1.59-6.6,1.59s-3.47-1.56-5.72-1.52A8.42,8.42,0,0,0,75.18,142c-3.06,5.31-.78,13.1,2.16,17.39,1.47,2.1,3.18,4.45,5.43,4.36s3-1.4,5.67-1.4,3.4,1.4,5.69,1.35,3.84-2.11,5.26-4.23a17.32,17.32,0,0,0,2.41-4.9,7.58,7.58,0,0,1-4.63-7" fill="none" clip-rule="evenodd"/></clipPath><clipPath id="clip-path-7" transform="translate(-55.8 -120.21)"><path d="M92.84,134.83a7.72,7.72,0,0,0,1.77-5.53,7.86,7.86,0,0,0-5.08,2.63,7.34,7.34,0,0,0-1.81,5.33,6.49,6.49,0,0,0,5.13-2.42" fill="none" clip-rule="evenodd"/></clipPath></defs><title>Asset 1</title><g id="Layer_2" data-name="Layer 2"><g id="ALL_THE_THINGS_" data-name="ALL THE THINGS!"><path d="M56.3,126.19a5.49,5.49,0,0,1,5.48-5.48h169a5.48,5.48,0,0,1,5.48,5.48v41.34a5.49,5.49,0,0,1-5.48,5.48h-169a5.48,5.48,0,0,1-5.48-5.48Z" transform="translate(-55.8 -120.21)" fill="#141f48" stroke="#fff" stroke-miterlimit="10" fill-rule="evenodd"/><g clip-path="url(#clip-path)"><g clip-path="url(#clip-path-2)"><rect x="56.22" y="22.19" width="106.36" height="24.1" fill="#fff"/></g></g><g clip-path="url(#clip-path-3)"><g clip-path="url(#clip-path-2)"><rect x="58.73" y="8.13" width="102.84" height="10.35" fill="#fff"/></g></g><g clip-path="url(#clip-path-5)"><g clip-path="url(#clip-path-2)"><rect x="17.31" y="16.81" width="29.29" height="27.4" fill="#fff"/></g></g><g clip-path="url(#clip-path-7)"><g clip-path="url(#clip-path-2)"><rect x="31.26" y="8.49" width="8.19" height="9.19" fill="#fff"/></g></g></g></g></svg>