<svg xmlns="http://www.w3.org/2000/svg" viewBox="0 0 234.83 34"><title>Asset 3</title><g id="Layer_2" data-name="Layer 2"><g id="ALL_THE_THINGS_" data-name="ALL THE THINGS!"><path d="M146.68,26.54,157.35,17A20,20,0,0,0,159,15.29a3.2,3.2,0,0,0,.81-2.17,2.64,2.64,0,0,0-1-2.19,3.71,3.71,0,0,0-2.37-.8,3.25,3.25,0,0,0-2.54,1,4.07,4.07,0,0,0-1,2.48L147,13.2a9.47,9.47,0,0,1,.89-3.71A7.78,7.78,0,0,1,150,6.87a8.66,8.66,0,0,1,3-1.57,12.84,12.84,0,0,1,3.74-.52,11.35,11.35,0,0,1,3.49.52,8.14,8.14,0,0,1,2.83,1.55,7.07,7.07,0,0,1,1.88,2.58,8.94,8.94,0,0,1,.68,3.61,9.7,9.7,0,0,1-.27,2.39,8.09,8.09,0,0,1-.76,1.94A8.87,8.87,0,0,1,163.44,19,18.89,18.89,0,0,1,162,20.41l-8.34,7.18h12.18v5.12H146.68Z" fill="#fff"/><path d="M169,19a28.46,28.46,0,0,1,.45-5,14.54,14.54,0,0,1,1.59-4.58,9.48,9.48,0,0,1,3.12-3.36,10.44,10.44,0,0,1,10.09,0,9.48,9.48,0,0,1,3.12,3.36A14.57,14.57,0,0,1,189,14a27.86,27.86,0,0,1,0,9.93,14.56,14.56,0,0,1-1.59,4.58,9.47,9.47,0,0,1-3.12,3.36,10.44,10.44,0,0,1-10.09,0,9.46,9.46,0,0,1-3.12-3.36,14.53,14.53,0,0,1-1.59-4.58A28.45,28.45,0,0,1,169,19Zm5.82,0q0,1.09.1,2.6a12.66,12.66,0,0,0,.52,2.91,6.18,6.18,0,0,0,1.3,2.37,3.59,3.59,0,0,0,4.91,0A6,6,0,0,0,183,24.49a12.73,12.73,0,0,0,.52-2.91q.1-1.51.1-2.6t-.1-2.6a12.73,12.73,0,0,0-.52-2.91,6.05,6.05,0,0,0-1.32-2.37,3.59,3.59,0,0,0-4.91,0,6.18,6.18,0,0,0-1.3,2.37,12.65,12.65,0,0,0-.52,2.91Q174.85,17.89,174.85,19Z" fill="#fff"/><path d="M201.89,11.76l-5.51,4.85-3.3-3.8,9-7.57h5.43V32.71h-5.59Z" fill="#fff"/><path d="M216,12.34A7.25,7.25,0,0,1,216.69,9a6.74,6.74,0,0,1,2-2.37,8.69,8.69,0,0,1,2.93-1.42,13.91,13.91,0,0,1,7.14,0,8.49,8.49,0,0,1,2.91,1.42,6.85,6.85,0,0,1,2.72,5.68,6.12,6.12,0,0,1-1.22,3.84,6.53,6.53,0,0,1-3.43,2.25v.08a6.44,6.44,0,0,1,5.12,6.67,7.4,7.4,0,0,1-.8,3.49,7.28,7.28,0,0,1-2.13,2.5,9.63,9.63,0,0,1-3.08,1.49,13.43,13.43,0,0,1-7.29,0,9.63,9.63,0,0,1-3.08-1.49,7.27,7.27,0,0,1-2.13-2.5,7.39,7.39,0,0,1-.8-3.49,6.44,6.44,0,0,1,5.12-6.67v-.08a6.53,6.53,0,0,1-3.43-2.25A6.12,6.12,0,0,1,216,12.34Zm5.35,12a3.27,3.27,0,0,0,1,2.44,4.37,4.37,0,0,0,5.59,0,3.27,3.27,0,0,0,1-2.44,3.31,3.31,0,0,0-1-2.48,4.37,4.37,0,0,0-5.59,0A3.31,3.31,0,0,0,221.33,24.37Zm.47-11.21a2.9,2.9,0,0,0,.93,2.17,3.79,3.79,0,0,0,4.89,0,2.9,2.9,0,0,0,.93-2.17,2.85,2.85,0,0,0-.93-2.13,3.79,3.79,0,0,0-4.89,0A2.85,2.85,0,0,0,221.79,13.16Z" fill="#fff"/><polygon points="49.1 12.17 46.61 12.17 52.26 4.65 52.26 7.89 49.1 12.17" fill="#fff"/><polygon points="52.26 12.17 49.73 12.17 52.26 8.9 52.26 12.17" fill="#fff"/><polygon points="43.35 12.17 45.83 12.17 52.26 3.48 52.26 0.24 43.35 12.17" fill="#fff"/><polygon points="42.54 12.17 40.05 12.17 45.71 4.65 45.71 7.89 42.54 12.17" fill="#fff"/><polygon points="36.79 12.17 39.27 12.17 45.71 3.48 45.71 0.24 36.79 12.17" fill="#fff"/><polygon points="66.46 0 63.18 8.53 59.93 0 56.63 0 56.63 12.17 58.69 12.17 58.69 2.06 58.73 2.06 62.42 12.17 63.94 12.17 67.63 2.06 67.67 2.06 67.67 12.17 69.73 12.17 69.73 0 66.46 0" fill="#fff"/><path d="M76.75,8.48h-.43c-1.13,0-3.1.09-3.1,1.27,0,.76.77,1.08,1.45,1.08,1.41,0,2.08-.74,2.08-1.89ZM76.87,11h-.05a3,3,0,0,1-2.65,1.34c-1.53,0-3-.84-3-2.47C71.16,7.22,74.29,7,76.36,7h.52V6.81c0-1-.79-1.55-1.89-1.55a3.25,3.25,0,0,0-2.2.86L71.7,5a4.83,4.83,0,0,1,3.51-1.32c3.53,0,3.53,2.54,3.53,3.71v4.75H76.87Z" fill="#fff"/><path d="M80.65,3.92h2V5.24h0a2.59,2.59,0,0,1,2.53-1.53c2.22,0,3,1.57,3,3.25v5.21H86.12V8c0-.91-.07-2.43-1.51-2.43a1.85,1.85,0,0,0-1.89,2.1v4.5H80.65Z" fill="#fff"/><path d="M92.21,5.07h0a2.59,2.59,0,0,1,2.43-1.36c2.22,0,3,1.57,3,3.25v5.21H95.61V8c0-.91-.07-2.43-1.51-2.43a1.85,1.85,0,0,0-1.89,2.1v4.5H90.14V0h2.06Z" fill="#fff"/><path d="M104.72,8.48h-.43c-1.14,0-3.09.09-3.09,1.27,0,.76.77,1.08,1.44,1.08,1.41,0,2.08-.74,2.08-1.89Zm.12,2.56h-.05a3,3,0,0,1-2.65,1.34c-1.53,0-3-.84-3-2.47,0-2.69,3.13-2.87,5.19-2.87h.52V6.81c0-1-.79-1.55-1.89-1.55a3.26,3.26,0,0,0-2.2.86L99.67,5a4.83,4.83,0,0,1,3.51-1.32c3.53,0,3.53,2.54,3.53,3.71v4.75h-1.86Z" fill="#fff"/><path d="M107.94,5.67l2.95-4.14V3.92h2.58l-1.25,1.75h-1.32V9.28c0,.83.24,1.34,1.15,1.34a2.13,2.13,0,0,0,1.12-.26v1.74a4.39,4.39,0,0,1-1.63.27c-2.18,0-2.7-1-2.7-2.92V5.67Z" fill="#fff"/><path d="M113.34,5.67l3-4.14V3.92h2.27V5.67H116.3V9.28c0,.83.24,1.34,1.15,1.34a2.14,2.14,0,0,0,1.12-.26v1.74a4.38,4.38,0,0,1-1.63.27c-2.19,0-2.7-1-2.7-2.92V5.67Z" fill="#fff"/><path d="M125.18,8.48h-.43c-1.14,0-3.1.09-3.1,1.27,0,.76.77,1.08,1.44,1.08,1.41,0,2.08-.74,2.08-1.89ZM125.3,11h-.05a3,3,0,0,1-2.65,1.34c-1.53,0-3-.84-3-2.47,0-2.69,3.13-2.87,5.19-2.87h.52V6.81c0-1-.79-1.55-1.89-1.55a3.26,3.26,0,0,0-2.2.86L120.12,5a4.84,4.84,0,0,1,3.51-1.32c3.52,0,3.52,2.54,3.52,3.71v4.75H125.3Z" fill="#fff"/><path d="M129,3.92h2V5.24h0a2.59,2.59,0,0,1,2.53-1.53c2.22,0,3,1.57,3,3.25v5.21h-2.07V8c0-.91-.07-2.43-1.51-2.43A1.85,1.85,0,0,0,131,7.67v4.5H129Z" fill="#fff"/><path d="M0,18.08H5.17L8.75,28.21h0l3.6-10.13h5.15V33.6H14.12V21.7h0L10,33.6H7.39L3.46,21.7h0V33.6H0Z" fill="#fff"/><path d="M19.86,25.84a8.77,8.77,0,0,1,.62-3.38,7.41,7.41,0,0,1,1.74-2.58,7.7,7.7,0,0,1,2.65-1.63,10.16,10.16,0,0,1,6.71,0,7.7,7.7,0,0,1,2.65,1.63A7.41,7.41,0,0,1,36,22.46a9.44,9.44,0,0,1,0,6.75,7.41,7.41,0,0,1-1.74,2.58,7.67,7.67,0,0,1-2.65,1.63,10.16,10.16,0,0,1-6.71,0,7.67,7.67,0,0,1-2.65-1.63,7.41,7.41,0,0,1-1.74-2.58A8.77,8.77,0,0,1,19.86,25.84Zm3.55,0a5.69,5.69,0,0,0,.34,2,4.59,4.59,0,0,0,1,1.58,4.45,4.45,0,0,0,1.52,1,5.47,5.47,0,0,0,4,0,4.45,4.45,0,0,0,1.52-1,4.59,4.59,0,0,0,1-1.58,6.06,6.06,0,0,0,0-4,4.58,4.58,0,0,0-1-1.59,4.45,4.45,0,0,0-1.52-1,5.47,5.47,0,0,0-4,0,4.45,4.45,0,0,0-1.52,1,4.57,4.57,0,0,0-1,1.59A5.72,5.72,0,0,0,23.41,25.84Z" fill="#fff"/><path d="M38.94,18.08h5.17l3.57,10.13h0l3.6-10.13h5.15V33.6H53.05V21.7h0L48.93,33.6H46.32L42.4,21.7h0V33.6H38.94Z" fill="#fff"/><path d="M59.76,18.08H70.31v3.16H63.18v2.89h6.73v3.16H63.18v3.16H70.7V33.6H59.76Z" fill="#fff"/><path d="M73.44,18.08h4.65l6.6,10.79h0V18.08h3.42V33.6H83.68l-6.77-11h0v11H73.44Z" fill="#fff"/><path d="M94.31,21.1H89.89v-3h12.28v3H97.73V33.6H94.31Z" fill="#fff"/><path d="M117,27.62a7.49,7.49,0,0,1-.42,2.54,5.6,5.6,0,0,1-1.24,2,5.67,5.67,0,0,1-2.05,1.34,8.61,8.61,0,0,1-5.68,0,5.66,5.66,0,0,1-2-1.34,5.6,5.6,0,0,1-1.24-2,7.49,7.49,0,0,1-.42-2.54V18.08h3.42v9.4a3.78,3.78,0,0,0,.23,1.34,3.18,3.18,0,0,0,.65,1.06,2.93,2.93,0,0,0,1,.7,3.13,3.13,0,0,0,1.26.25,3.05,3.05,0,0,0,1.25-.25,3,3,0,0,0,1-.7,3.19,3.19,0,0,0,.65-1.06,3.78,3.78,0,0,0,.23-1.34v-9.4H117Z" fill="#fff"/><path d="M120.14,18.08h5.17l3.57,10.13h0l3.6-10.13h5.15V33.6h-3.42V21.7h0l-4.08,11.9h-2.61L123.6,21.7h0V33.6h-3.42Z" fill="#fff"/></g></g></svg>