<svg xmlns="http://www.w3.org/2000/svg" viewBox="0 0 181 53.31"><defs><clipPath id="a" transform="translate(-55.8 -120.21)"><path d="M215 157.8a3.26 3.26 0 0 1-3.24 1.65c-2.15 0-3.54-1.51-3.62-3.9v-.15h9.61v-.94c0-4.27-2.29-6.86-6.07-6.86s-6.27 2.76-6.27 7.11 2.39 7 6.29 7c3.11 0 5.29-1.5 5.9-3.94zm-3.34-7.91a3.28 3.28 0 0 1 3.35 3.52h-6.87a3.48 3.48 0 0 1 3.54-3.52zM198 161.48h2.69v-8a3.18 3.18 0 0 1 3.46-3.2 7.36 7.36 0 0 1 1.49.16v-2.65a5.63 5.63 0 0 0-1.19-.11 3.67 3.67 0 0 0-3.66 2.31h-.2v-2.09H198zm-7.64.26c4 0 6.41-2.66 6.41-7.07s-2.45-7.06-6.41-7.06-6.42 2.67-6.42 7.06 2.43 7.07 6.42 7.07zm0-2.39c-2.34 0-3.65-1.71-3.65-4.69S188 150 190.36 150s3.65 1.72 3.65 4.67-1.33 4.68-3.65 4.68zM178 144.57v3.36h-2.24v2.26H178v7.69c0 2.62 1.19 3.67 4.17 3.67a8.25 8.25 0 0 0 1.44-.14v-2.24a8.41 8.41 0 0 1-1 .06c-1.34 0-1.92-.62-1.92-2v-7h3v-2.26h-3v-3.36zm-16.15 12.06c.2 3.22 2.89 5.29 6.89 5.29 4.27 0 6.95-2.16 6.95-5.61 0-2.71-1.52-4.21-5.22-5.07l-2-.49c-2.35-.55-3.3-1.29-3.3-2.57 0-1.62 1.47-2.69 3.69-2.69s3.55 1 3.81 2.7h2.72c-.16-3-2.84-5.17-6.5-5.17-3.94 0-6.56 2.14-6.56 5.35 0 2.65 1.49 4.22 4.75 5l2.32.56c2.39.56 3.44 1.39 3.44 2.76 0 1.6-1.65 2.76-3.9 2.76-2.41 0-4.09-1.09-4.32-2.8zm-12.1 2.66c-2.25 0-3.66-1.77-3.66-4.61s1.41-4.62 3.67-4.62 3.64 1.74 3.64 4.61-1.4 4.62-3.68 4.62zm.76-11.65a4.73 4.73 0 0 0-4.27 2.47H146v-2.25h-2.59v18h2.69v-6.47h.21a4.44 4.44 0 0 0 4.19 2.29c3.44 0 5.62-2.71 5.62-7s-2.18-7.04-5.64-7.04zm-14.7 11.65c-2.25 0-3.66-1.77-3.66-4.61s1.41-4.62 3.67-4.62 3.64 1.74 3.64 4.61-1.39 4.62-3.68 4.62zm.76-11.65a4.73 4.73 0 0 0-4.27 2.47h-.2v-2.25h-2.59v18h2.69v-6.47h.21a4.44 4.44 0 0 0 4.19 2.29c3.44 0 5.62-2.71 5.62-7s-2.22-7.04-5.67-7.04zm-16-.92h.21l2.61 7.62h-5.45zm5.19 14.76h3l-6.51-18h-3l-6.51 18h2.87l1.66-4.79H124z" fill="none" clip-rule="evenodd"/></clipPath><clipPath id="b" transform="translate(-55.8 -120.21)"><path fill="none" d="M0 0h292.48v219.36H0z"/></clipPath><clipPath id="c" transform="translate(-55.8 -120.21)"><path d="M215.46 136.21a1.55 1.55 0 0 1-1.54.79 1.71 1.71 0 0 1-1.73-1.86v-.07h4.58v-.45c0-2-1.09-3.27-2.89-3.27s-3 1.32-3 3.39 1.14 3.34 3 3.34a2.63 2.63 0 0 0 2.81-1.87zm-1.59-3.77a1.56 1.56 0 0 1 1.59 1.68h-3.27a1.66 1.66 0 0 1 1.68-1.68zM203.4 138h1.28v-3.78a1.56 1.56 0 0 1 1.7-1.64c1 0 1.45.52 1.45 1.56V138h1.28v-4.18a2.14 2.14 0 0 0-2.29-2.42 2.09 2.09 0 0 0-2 1.16h-.1v-3.57h-1.32zm-4.55-8.05v1.6h-1.07v1.08h1.07v3.66c0 1.25.57 1.75 2 1.75a3.93 3.93 0 0 0 .68-.07v-1.07a4 4 0 0 1-.48 0c-.64 0-.92-.3-.92-1v-3.33h1.45v-1.07h-1.45v-1.6zM187 138h1.28v-3.79a1.53 1.53 0 0 1 1.66-1.64c1 0 1.42.52 1.42 1.56V138h1.28v-4.2a2.31 2.31 0 0 0-4.31-1.26h-.1v-1H187zm-4.89.12c1.89 0 3.05-1.27 3.05-3.37s-1.17-3.36-3.05-3.36-3.06 1.27-3.06 3.36 1.18 3.33 3.08 3.33zm0-1.14c-1.11 0-1.74-.82-1.74-2.23s.62-2.23 1.74-2.23 1.74.82 1.74 2.23-.61 2.19-1.72 2.19zm-11.59-4.43c1.07 0 1.74.85 1.74 2.2s-.67 2.2-1.74 2.2-1.73-.83-1.73-2.2.67-2.23 1.75-2.23zm-.36 5.55a2.25 2.25 0 0 0 2-1.13h.1v1h1.23v-9h-1.28v3.56h-.1a2.14 2.14 0 0 0-2-1.14c-1.64 0-2.69 1.3-2.69 3.34s1.11 3.33 2.75 3.33zm-7.77 0a2.18 2.18 0 0 0 1.95-1h.1v.9h1.23v-4.43c0-1.37-.92-2.18-2.54-2.18-1.47 0-2.52.71-2.65 1.83h1.24c.14-.46.64-.72 1.35-.72.87 0 1.33.39 1.33 1.07v.56l-1.76.1c-1.54.1-2.41.77-2.41 1.93a2 2 0 0 0 2.17 1.9zm.33-1.08c-.7 0-1.2-.34-1.2-.92s.4-.87 1.3-.93l1.58-.1v.54a1.53 1.53 0 0 1-1.67 1.39zm-7 1.09c1.89 0 3.05-1.27 3.05-3.37s-1.17-3.36-3.05-3.36-3.06 1.27-3.06 3.36 1.16 3.34 3.06 3.34zm0-1.14c-1.11 0-1.74-.82-1.74-2.23s.62-2.23 1.74-2.23 1.74.82 1.74 2.23-.64 2.2-1.74 2.2zm-6.24 1h1.28v-9h-1.28zm-7.8 0H143v-3.79a1.53 1.53 0 0 1 1.66-1.64c1 0 1.42.52 1.42 1.56v3.9h1.28v-4.2a2.31 2.31 0 0 0-4.36-1.3h-.1v-1h-1.23zm-1.63-6.48h-1.28l-1.15 4.94h-.1l-1.33-4.94H135l-1.33 4.94h-.1l-1.16-4.94h-1.3l1.79 6.48h1.32l1.33-4.77h.1L137 138h1.33zM127 138.08c1.89 0 3.05-1.27 3.05-3.37s-1.17-3.36-3.05-3.36-3.06 1.27-3.06 3.36 1.14 3.37 3.06 3.37zm0-1.14c-1.11 0-1.74-.82-1.74-2.23s.62-2.23 1.74-2.23 1.74.82 1.74 2.23-.66 2.23-1.74 2.23zm-10.5-6.36h1.62c1.78 0 2.83 1.13 2.83 3.07s-1 3.09-2.83 3.09h-1.62zm-1.33-1.21V138h3.1c2.56 0 4-1.58 4-4.32s-1.49-4.27-4-4.27z" fill="none" clip-rule="evenodd"/></clipPath><clipPath id="d" transform="translate(-55.8 -120.21)"><path d="M97.17 147.65a7.84 7.84 0 0 1 3.73-6.58 8 8 0 0 0-6.32-3.42c-2.66-.28-5.24 1.59-6.6 1.59s-3.47-1.56-5.72-1.52a8.42 8.42 0 0 0-7.08 4.28c-3.06 5.31-.78 13.1 2.16 17.39 1.47 2.1 3.18 4.45 5.43 4.36s3-1.4 5.67-1.4 3.4 1.4 5.69 1.35 3.84-2.11 5.26-4.23a17.32 17.32 0 0 0 2.41-4.9 7.58 7.58 0 0 1-4.63-7" fill="none" clip-rule="evenodd"/></clipPath><clipPath id="e" transform="translate(-55.8 -120.21)"><path d="M92.84 134.83a7.72 7.72 0 0 0 1.77-5.53 7.86 7.86 0 0 0-5.08 2.63 7.34 7.34 0 0 0-1.81 5.33 6.49 6.49 0 0 0 5.13-2.42" fill="none" clip-rule="evenodd"/></clipPath></defs><title>Asset 1</title><g data-name="Layer 2"><g data-name="ALL THE THINGS!"><path d="M.5 5.98A5.49 5.49 0 0 1 5.98.5h169a5.48 5.48 0 0 1 5.48 5.48v41.34a5.49 5.49 0 0 1-5.48 5.48h-169A5.48 5.48 0 0 1 .5 47.32z" fill="#141f48" stroke="#fff" stroke-miterlimit="10" fill-rule="evenodd"/><g clip-path="url(#a)"><g clip-path="url(#b)"><path fill="#fff" d="M56.22 22.19h106.36v24.1H56.22z"/></g></g><g clip-path="url(#c)"><g clip-path="url(#b)"><path fill="#fff" d="M58.73 8.13h102.84v10.35H58.73z"/></g></g><g clip-path="url(#d)"><g clip-path="url(#b)"><path fill="#fff" d="M17.31 16.81H46.6v27.4H17.31z"/></g></g><g clip-path="url(#e)"><g clip-path="url(#b)"><path fill="#fff" d="M31.26 8.49h8.19v9.19h-8.19z"/></g></g></g></g></svg>