<svg xmlns="http://www.w3.org/2000/svg" viewBox="0 0 403.77 74.86"><title>Asset 2</title><g data-name="Layer 2"><g data-name="ALL THE THINGS!"><path d="M246 47.51l19.1-17.15a35.86 35.86 0 0 0 2.92-3 5.72 5.72 0 0 0 1.46-3.89 4.72 4.72 0 0 0-1.81-3.92 6.65 6.65 0 0 0-4.24-1.42 5.82 5.82 0 0 0-4.55 1.81 7.28 7.28 0 0 0-1.88 4.44l-10.42-.76a16.94 16.94 0 0 1 1.6-6.63 13.93 13.93 0 0 1 3.68-4.69 15.49 15.49 0 0 1 5.38-2.81 23 23 0 0 1 6.7-.94 20.31 20.31 0 0 1 6.25.94 14.57 14.57 0 0 1 5.07 2.78 12.66 12.66 0 0 1 3.37 4.62 16 16 0 0 1 1.22 6.46 17.37 17.37 0 0 1-.49 4.27 14.48 14.48 0 0 1-1.36 3.46 15.87 15.87 0 0 1-2 2.92 33.8 33.8 0 0 1-2.57 2.57L258.5 49.38h21.8v9.17H246zM286 34a50.94 50.94 0 0 1 .8-8.89 26 26 0 0 1 2.85-8.19 17 17 0 0 1 5.59-6 18.68 18.68 0 0 1 18.06 0 17 17 0 0 1 5.59 6 26.08 26.08 0 0 1 2.85 8.19 49.87 49.87 0 0 1 0 17.78 26.05 26.05 0 0 1-2.86 8.11 17 17 0 0 1-5.59 6 18.68 18.68 0 0 1-18.06 0 16.94 16.94 0 0 1-5.59-6 26 26 0 0 1-2.85-8.19A50.93 50.93 0 0 1 286 34zm10.42 0q0 1.94.17 4.65a22.65 22.65 0 0 0 .94 5.21 11.05 11.05 0 0 0 2.33 4.24 6.42 6.42 0 0 0 8.78 0 10.83 10.83 0 0 0 2.36-4.27 22.79 22.79 0 0 0 .94-5.21q.17-2.71.17-4.65t-.17-4.65a22.78 22.78 0 0 0-.94-5.22 10.84 10.84 0 0 0-2.36-4.24 6.42 6.42 0 0 0-8.78 0 11.06 11.06 0 0 0-2.33 4.24 22.65 22.65 0 0 0-.94 5.21q-.18 2.69-.18 4.69zm48.39-13L335 29.73l-6-6.81 16-13.54h9.72v49.17h-10zM370 22.09a13 13 0 0 1 1.28-5.94 12.07 12.07 0 0 1 3.54-4.24 15.55 15.55 0 0 1 5.24-2.53 24.9 24.9 0 0 1 12.78 0 15.19 15.19 0 0 1 5.21 2.53 12.26 12.26 0 0 1 4.86 10.17 11 11 0 0 1-2.16 6.92 11.69 11.69 0 0 1-6.15 4v.14a11.52 11.52 0 0 1 9.17 11.94 13.25 13.25 0 0 1-1.42 6.25 13 13 0 0 1-3.82 4.48 17.23 17.23 0 0 1-5.53 2.67 24 24 0 0 1-13.06 0 17.23 17.23 0 0 1-5.52-2.67 13 13 0 0 1-3.82-4.48 13.23 13.23 0 0 1-1.42-6.25 11.52 11.52 0 0 1 9.17-11.94V33a11.69 11.69 0 0 1-6.15-4 11 11 0 0 1-2.2-6.91zm9.58 21.53a5.85 5.85 0 0 0 1.9 4.38 7.83 7.83 0 0 0 10 0 5.85 5.85 0 0 0 1.87-4.38 5.93 5.93 0 0 0-1.87-4.44 7.83 7.83 0 0 0-10 0 5.93 5.93 0 0 0-1.88 4.44zm.83-20.07a5.18 5.18 0 0 0 1.67 3.89 6.79 6.79 0 0 0 8.75 0 5.18 5.18 0 0 0 1.67-3.89 5.11 5.11 0 0 0-1.67-3.82 6.79 6.79 0 0 0-8.75 0 5.11 5.11 0 0 0-1.64 3.82z" fill="#e13c30"/><path fill="#141f48" d="M71.36 21.79H66.9L77.02 8.33v5.8l-5.66 7.66zm5.66 0h-4.55l4.55-5.85v5.85zm-15.96 0h4.45L77.02 6.24V.43L61.06 21.79zm-1.44 0h-4.46L65.28 8.33v5.8l-5.66 7.66zm-10.31 0h4.46L65.28 6.24V.43L49.31 21.79zM102.43 0l-5.88 15.27L90.74 0h-5.91v21.79h3.69V3.69h.06l6.62 18.1h2.71l6.61-18.1h.06v18.1h3.7V0h-5.85zm18.42 15.17h-.77c-2 0-5.54.16-5.54 2.28 0 1.36 1.39 1.94 2.59 1.94 2.52 0 3.72-1.32 3.72-3.39zm.21 4.59H121a5.31 5.31 0 0 1-4.74 2.4c-2.74 0-5.39-1.51-5.39-4.43 0-4.81 5.6-5.14 9.29-5.14h.92v-.4c0-1.81-1.41-2.77-3.38-2.77a5.82 5.82 0 0 0-3.96 1.58l-1.94-2a8.64 8.64 0 0 1 6.27-2.37c6.31 0 6.31 4.55 6.31 6.65v8.49h-3.33zM127.82 7h3.51v2.38h.06a4.63 4.63 0 0 1 4.52-2.74c4 0 5.39 2.8 5.39 5.82v9.32h-3.7v-7.47c0-1.63-.12-4.34-2.71-4.34-2.43 0-3.38 1.79-3.38 3.76v8.06h-3.7zm20.69 2.07h.06a4.63 4.63 0 0 1 4.34-2.43c4 0 5.38 2.8 5.38 5.82v9.32h-3.69v-7.47c0-1.63-.13-4.34-2.71-4.34s-3.39 1.79-3.39 3.76v8.06h-3.69V0h3.69zm22.39 6.1h-.77c-2 0-5.54.16-5.54 2.28 0 1.36 1.39 1.94 2.59 1.94 2.52 0 3.72-1.32 3.72-3.39zm.22 4.59H171a5.32 5.32 0 0 1-4.74 2.4c-2.74 0-5.38-1.51-5.38-4.43 0-4.81 5.6-5.14 9.29-5.14h.93v-.4c0-1.81-1.42-2.77-3.39-2.77a5.83 5.83 0 0 0-3.92 1.58l-1.93-2a8.64 8.64 0 0 1 6.27-2.37c6.31 0 6.31 4.55 6.31 6.65v8.49h-3.32zm5.55-9.61l5.28-7.42V7h4.61l-2.24 3.14h-2.37v6.46c0 1.48.43 2.41 2.06 2.41a3.81 3.81 0 0 0 2-.47v3.11a7.86 7.86 0 0 1-2.92.49c-3.91 0-4.83-1.76-4.83-5.23v-6.76z"/><path d="M186.33 10.15l5.3-7.42V7h4.06v3.14h-4.06v6.46c0 1.48.43 2.41 2.06 2.41a3.83 3.83 0 0 0 2-.47v3.11a7.84 7.84 0 0 1-2.92.49c-3.91 0-4.84-1.76-4.84-5.23v-6.76zm21.18 5.02h-.77c-2 0-5.54.16-5.54 2.28 0 1.36 1.38 1.94 2.59 1.94 2.52 0 3.72-1.32 3.72-3.39zm.21 4.59h-.09a5.32 5.32 0 0 1-4.74 2.4c-2.74 0-5.39-1.51-5.39-4.43 0-4.81 5.6-5.14 9.3-5.14h.92v-.4c0-1.81-1.41-2.77-3.38-2.77A5.84 5.84 0 0 0 200.4 11l-1.94-2a8.66 8.66 0 0 1 6.28-2.37c6.31 0 6.31 4.55 6.31 6.65v8.49h-3.32zM214.28 7h3.51v2.38h.06a4.63 4.63 0 0 1 4.53-2.74c4 0 5.39 2.8 5.39 5.82v9.32h-3.7v-7.47c0-1.63-.12-4.34-2.71-4.34-2.43 0-3.39 1.79-3.39 3.76v8.06h-3.69z" fill="#141f48"/><text transform="translate(0 58.41)" font-size="36" fill="#141f48" font-family="Avenir-Black, Avenir">MOMENTUM</text></g></g></svg>