<svg xmlns="http://www.w3.org/2000/svg" viewBox="0 0 176.19 47.45"><title>Asset 4</title><g data-name="Layer 2"><g data-name="ALL THE THINGS!"><path fill="#1da1f2" d="M0 0h47.45v47.45H0z" data-name="Dark Blue"/><g data-name="Logo FIXED"><path d="M18.22 35.78c11.19 0 17.31-9.27 17.31-17.31v-.79a12.38 12.38 0 0 0 3-3.15 12.15 12.15 0 0 1-3.49 1 6.11 6.11 0 0 0 2.68-3.37 12.19 12.19 0 0 1-3.86 1.48 6.09 6.09 0 0 0-10.36 5.51A17.28 17.28 0 0 1 11 12.79a6.09 6.09 0 0 0 1.88 8.12 6 6 0 0 1-2.76-.76v.08a6.09 6.09 0 0 0 4.88 6 6.08 6.08 0 0 1-2.75.1 6.09 6.09 0 0 0 5.68 4.23 12.21 12.21 0 0 1-7.56 2.61A12.39 12.39 0 0 1 8.9 33a17.23 17.23 0 0 0 9.33 2.73" fill="#fff"/><path fill="none" d="M0 0h47.45v47.45H0z"/></g><path d="M117.08 38.29a.84.84 0 0 0 .85-.89c0-.63-.38-.93-1.16-.93h-1.27v3.3h.5v-1.44h.58l.91 1.42h.5l-1-1.47zm-.55-.33H116v-1.12h.7c.36 0 .77.06.77.53s-.47.63-.94.63z" fill="#231f20"/><path d="M116.58 35a3.13 3.13 0 1 0 3.13 3.13 3.09 3.09 0 0 0-3.13-3.13zm0 5.84a2.72 2.72 0 1 1 2.67-2.72 2.66 2.66 0 0 1-2.67 2.72z" fill="#231f20"/><path d="M107.93 0H67.49A3.46 3.46 0 0 0 64 3.42V44a3.46 3.46 0 0 0 3.5 3.42h40.44a3.47 3.47 0 0 0 3.5-3.42V3.42A3.47 3.47 0 0 0 107.93 0z" fill="#007bb5"/><path d="M71 17.79h7v22.64h-7zm3.55-11.26a4.08 4.08 0 1 1-4.08 4.08 4.08 4.08 0 0 1 4.08-4.08m7.93 11.26h6.75v3.1h.1A7.39 7.39 0 0 1 96 17.23c7.13 0 8.44 4.69 8.44 10.79v12.41h-7v-11c0-2.63 0-6-3.66-6s-4.22 2.86-4.22 5.82v11.2h-7z" fill="#fff"/><rect x="128.74" width="47.45" height="47.45" rx="2.62" ry="2.62" fill="#3d5a98"/><path d="M161.48 47.45V29.08h6.17l.92-7.16h-7.09v-4.58c0-2.07.58-3.49 3.55-3.49h3.79v-6.4a50.75 50.75 0 0 0-5.53-.28c-5.47 0-9.21 3.34-9.21 9.47v5.28h-6.18v7.16h6.18v18.37z" fill="#fff"/></g></g></svg>