<svg xmlns="http://www.w3.org/2000/svg" viewBox="0 0 234.83 34"><title>Asset 3</title><g data-name="Layer 2"><g data-name="ALL THE THINGS!" fill="#fff"><path d="M146.68 26.54L157.35 17a20 20 0 0 0 1.65-1.71 3.2 3.2 0 0 0 .81-2.17 2.64 2.64 0 0 0-1-2.19 3.71 3.71 0 0 0-2.37-.8 3.25 3.25 0 0 0-2.54 1 4.07 4.07 0 0 0-1 2.48l-5.9-.41a9.47 9.47 0 0 1 .89-3.71A7.78 7.78 0 0 1 150 6.87a8.66 8.66 0 0 1 3-1.57 12.84 12.84 0 0 1 3.74-.52 11.35 11.35 0 0 1 3.49.52 8.14 8.14 0 0 1 2.83 1.55 7.07 7.07 0 0 1 1.88 2.58 8.94 8.94 0 0 1 .68 3.61 9.7 9.7 0 0 1-.27 2.39 8.09 8.09 0 0 1-.76 1.94 8.87 8.87 0 0 1-1.15 1.63 18.89 18.89 0 0 1-1.44 1.41l-8.34 7.18h12.18v5.12h-19.16zM169 19a28.46 28.46 0 0 1 .45-5 14.54 14.54 0 0 1 1.59-4.58 9.48 9.48 0 0 1 3.12-3.36 10.44 10.44 0 0 1 10.09 0 9.48 9.48 0 0 1 3.12 3.36A14.57 14.57 0 0 1 189 14a27.86 27.86 0 0 1 0 9.93 14.56 14.56 0 0 1-1.59 4.58 9.47 9.47 0 0 1-3.12 3.36 10.44 10.44 0 0 1-10.09 0 9.46 9.46 0 0 1-3.12-3.36 14.53 14.53 0 0 1-1.59-4.58A28.45 28.45 0 0 1 169 19zm5.82 0q0 1.09.1 2.6a12.66 12.66 0 0 0 .52 2.91 6.18 6.18 0 0 0 1.3 2.37 3.59 3.59 0 0 0 4.91 0 6 6 0 0 0 1.35-2.39 12.73 12.73 0 0 0 .52-2.91q.1-1.51.1-2.6t-.1-2.6a12.73 12.73 0 0 0-.52-2.91 6.05 6.05 0 0 0-1.32-2.37 3.59 3.59 0 0 0-4.91 0 6.18 6.18 0 0 0-1.3 2.37 12.65 12.65 0 0 0-.52 2.91q-.1 1.51-.1 2.62zm27.07-7.24l-5.51 4.85-3.3-3.8 9-7.57h5.43v27.47h-5.59zm14.11.58a7.25 7.25 0 0 1 .69-3.34 6.74 6.74 0 0 1 2-2.37 8.69 8.69 0 0 1 2.93-1.42 13.91 13.91 0 0 1 7.14 0 8.49 8.49 0 0 1 2.91 1.42 6.85 6.85 0 0 1 2.72 5.68 6.12 6.12 0 0 1-1.22 3.84 6.53 6.53 0 0 1-3.43 2.25v.08a6.44 6.44 0 0 1 5.12 6.67 7.4 7.4 0 0 1-.8 3.49 7.28 7.28 0 0 1-2.13 2.5 9.63 9.63 0 0 1-3.08 1.49 13.43 13.43 0 0 1-7.29 0 9.63 9.63 0 0 1-3.08-1.49 7.27 7.27 0 0 1-2.13-2.5 7.39 7.39 0 0 1-.8-3.49 6.44 6.44 0 0 1 5.12-6.67v-.08a6.53 6.53 0 0 1-3.43-2.25 6.12 6.12 0 0 1-1.24-3.81zm5.35 12a3.27 3.27 0 0 0 1 2.44 4.37 4.37 0 0 0 5.59 0 3.27 3.27 0 0 0 1-2.44 3.31 3.31 0 0 0-1-2.48 4.37 4.37 0 0 0-5.59 0 3.31 3.31 0 0 0-1.02 2.51zm.47-11.21a2.9 2.9 0 0 0 .93 2.17 3.79 3.79 0 0 0 4.89 0 2.9 2.9 0 0 0 .93-2.17 2.85 2.85 0 0 0-.93-2.13 3.79 3.79 0 0 0-4.89 0 2.85 2.85 0 0 0-.96 2.16zM49.1 12.17h-2.49l5.65-7.52v3.24l-3.16 4.28zm3.16 0h-2.53l2.53-3.27v3.27zm-8.91 0h2.48l6.43-8.69V.24l-8.91 11.93zm-.81 0h-2.49l5.66-7.52v3.24l-3.17 4.28zm-5.75 0h2.48l6.44-8.69V.24l-8.92 11.93zM66.46 0l-3.28 8.53L59.93 0h-3.3v12.17h2.06V2.06h.04l3.69 10.11h1.52l3.69-10.11h.04v10.11h2.06V0h-3.27zm10.29 8.48h-.43c-1.13 0-3.1.09-3.1 1.27 0 .76.77 1.08 1.45 1.08 1.41 0 2.08-.74 2.08-1.89zm.12 2.52h-.05a3 3 0 0 1-2.65 1.34c-1.53 0-3-.84-3-2.47C71.16 7.22 74.29 7 76.36 7h.52v-.19c0-1-.79-1.55-1.89-1.55a3.25 3.25 0 0 0-2.2.86L71.7 5a4.83 4.83 0 0 1 3.51-1.32c3.53 0 3.53 2.54 3.53 3.71v4.75h-1.87zm3.78-7.08h2v1.32a2.59 2.59 0 0 1 2.53-1.53c2.22 0 3 1.57 3 3.25v5.21h-2.06V8c0-.91-.07-2.43-1.51-2.43a1.85 1.85 0 0 0-1.89 2.1v4.5h-2.07zm11.56 1.15a2.59 2.59 0 0 1 2.43-1.36c2.22 0 3 1.57 3 3.25v5.21h-2.03V8c0-.91-.07-2.43-1.51-2.43a1.85 1.85 0 0 0-1.89 2.1v4.5h-2.07V0h2.06zm12.51 3.41h-.43c-1.14 0-3.09.09-3.09 1.27 0 .76.77 1.08 1.44 1.08 1.41 0 2.08-.74 2.08-1.89zm.12 2.56h-.05a3 3 0 0 1-2.65 1.34c-1.53 0-3-.84-3-2.47 0-2.69 3.13-2.87 5.19-2.87h.52v-.23c0-1-.79-1.55-1.89-1.55a3.26 3.26 0 0 0-2.2.86L99.67 5a4.83 4.83 0 0 1 3.51-1.32c3.53 0 3.53 2.54 3.53 3.71v4.75h-1.86zm3.1-5.37l2.95-4.14v2.39h2.58l-1.25 1.75h-1.32v3.61c0 .83.24 1.34 1.15 1.34a2.13 2.13 0 0 0 1.12-.26v1.74a4.39 4.39 0 0 1-1.63.27c-2.18 0-2.7-1-2.7-2.92V5.67z"/><path d="M113.34 5.67l3-4.14v2.39h2.27v1.75h-2.31v3.61c0 .83.24 1.34 1.15 1.34a2.14 2.14 0 0 0 1.12-.26v1.74a4.38 4.38 0 0 1-1.63.27c-2.19 0-2.7-1-2.7-2.92V5.67zm11.84 2.81h-.43c-1.14 0-3.1.09-3.1 1.27 0 .76.77 1.08 1.44 1.08 1.41 0 2.08-.74 2.08-1.89zm.12 2.52h-.05a3 3 0 0 1-2.65 1.34c-1.53 0-3-.84-3-2.47 0-2.69 3.13-2.87 5.19-2.87h.52v-.19c0-1-.79-1.55-1.89-1.55a3.26 3.26 0 0 0-2.2.86L120.12 5a4.84 4.84 0 0 1 3.51-1.32c3.52 0 3.52 2.54 3.52 3.71v4.75h-1.85zm3.7-7.08h2v1.32a2.59 2.59 0 0 1 2.53-1.53c2.22 0 3 1.57 3 3.25v5.21h-2.07V8c0-.91-.07-2.43-1.51-2.43a1.85 1.85 0 0 0-1.95 2.1v4.5h-2zM0 18.08h5.17l3.58 10.13 3.6-10.13h5.15V33.6h-3.38V21.7L10 33.6H7.39L3.46 21.7v11.9H0zm19.86 7.76a8.77 8.77 0 0 1 .62-3.38 7.41 7.41 0 0 1 1.74-2.58 7.7 7.7 0 0 1 2.65-1.63 10.16 10.16 0 0 1 6.71 0 7.7 7.7 0 0 1 2.65 1.63A7.41 7.41 0 0 1 36 22.46a9.44 9.44 0 0 1 0 6.75 7.41 7.41 0 0 1-1.74 2.58 7.67 7.67 0 0 1-2.65 1.63 10.16 10.16 0 0 1-6.71 0 7.67 7.67 0 0 1-2.65-1.63 7.41 7.41 0 0 1-1.74-2.58 8.77 8.77 0 0 1-.65-3.37zm3.55 0a5.69 5.69 0 0 0 .34 2 4.59 4.59 0 0 0 1 1.58 4.45 4.45 0 0 0 1.52 1 5.47 5.47 0 0 0 4 0 4.45 4.45 0 0 0 1.52-1 4.59 4.59 0 0 0 1-1.58 6.06 6.06 0 0 0 0-4 4.58 4.58 0 0 0-1-1.59 4.45 4.45 0 0 0-1.52-1 5.47 5.47 0 0 0-4 0 4.45 4.45 0 0 0-1.52 1 4.57 4.57 0 0 0-1 1.59 5.72 5.72 0 0 0-.34 2zm15.53-7.76h5.17l3.57 10.13 3.6-10.13h5.15V33.6h-3.38V21.7l-4.12 11.9h-2.61L42.4 21.7v11.9h-3.46zm20.82 0h10.55v3.16h-7.13v2.89h6.73v3.16h-6.73v3.16h7.52v3.15H59.76zm13.68 0h4.65l6.6 10.79V18.08h3.42V33.6h-4.43l-6.77-11v11h-3.47zm20.87 3.02h-4.42v-3h12.28v3h-4.44v12.5h-3.42zM117 27.62a7.49 7.49 0 0 1-.42 2.54 5.6 5.6 0 0 1-1.24 2 5.67 5.67 0 0 1-2.05 1.34 8.61 8.61 0 0 1-5.68 0 5.66 5.66 0 0 1-2-1.34 5.6 5.6 0 0 1-1.24-2 7.49 7.49 0 0 1-.42-2.54v-9.54h3.42v9.4a3.78 3.78 0 0 0 .23 1.34 3.18 3.18 0 0 0 .65 1.06 2.93 2.93 0 0 0 1 .7 3.13 3.13 0 0 0 1.26.25 3.05 3.05 0 0 0 1.25-.25 3 3 0 0 0 1-.7 3.19 3.19 0 0 0 .65-1.06 3.78 3.78 0 0 0 .23-1.34v-9.4H117zm3.14-9.54h5.17l3.57 10.13 3.6-10.13h5.15V33.6h-3.42V21.7l-4.08 11.9h-2.61l-3.92-11.9v11.9h-3.42z"/></g></g></svg>